# xmcd
#
# Track frame offsets: 
#        150
#        13650
#        32190
#        46640
#        60590
#        79840
#        99010
#        116037
#        133342
#        151803
#        167618
#        183698
#
# Disc length: 2656 seconds
#
# Revision: 0
# Processed by: cddbd v1.5.1PL2 Copyright (c) Steve Scherf et al.
# Submitted via: ExactAudioCopy v0.95b4
#
DISCID=920a5e0c
DTITLE=Marie Mai - Inoxydable
DYEAR=2006
DGENRE=Chanson
TTITLE0=Il faut que tu t'en ailles
TTITLE1=Inoxydable
TTITLE2=Tu t'en fous
TTITLE3=En hiver
TTITLE4=Tous les chemins
TTITLE5=Encore une nuit
TTITLE6=Un million d'années
TTITLE7=Rien
TTITLE8=Take the money
TTITLE9=Entre mes mains
TTITLE10=Chanson pour hier et demain
TTITLE11=Seule à Montréal
EXTD=
EXTT0=
EXTT1=
EXTT2=
EXTT3=
EXTT4=
EXTT5=
EXTT6=
EXTT7=
EXTT8=
EXTT9=
EXTT10=
EXTT11=
PLAYORDER=
